# xmcd CD database file
#
# Track frame offsets:
#	150
#	4093
#	29090
#	48923
#	52994
#	71831
#	95235
#	112601
#	131140
#	133702
#	156523
#	174837
#	178223
#	198242
#	215742
#	234773
#	238951
#	264580
#	295052
#	359175
#
# Disc length: 4795 seconds
#
# Revision: 5
# Processed by: cddbd v1.5.1PL0 Copyright (c) Steve Scherf et al.
# Submitted via: CDex 1.51
#
DISCID=3612b914
DTITLE=SOULHEAD - BRAIDED
DYEAR=2004
DGENRE=JPop
TTITLE0=BRAIDED -intro-
TTITLE1=YOU CAN DO THAT
TTITLE2=AT THE PARTY
TTITLE3=Jiggy Uhh.. pt.1 -skit-
TTITLE4=告白
TTITLE5=いつでも君のことを
TTITLE6=NO WAY
TTITLE7=A pretense of love
TTITLE8=I&I -interlude-
TTITLE9=Forgive me
TTITLE10=words of love
TTITLE11=Jiggy Uhh.. pt.2 -skit-
TTITLE12=D.O.G -album ver.-
TTITLE13=STAY THERE
TTITLE14=FOR ALL MY LADIES
TTITLE15=Jiggy Uhh.. pt.3 -skit-
TTITLE16=このまま
TTITLE17=GET UP!
TTITLE18=[cccd]
TTITLE19=[cccd]
EXTD=YEAR: 2004
EXTT0=
EXTT1=
EXTT2=
EXTT3=
EXTT4=
EXTT5=
EXTT6=
EXTT7=
EXTT8=
EXTT9=
EXTT10=
EXTT11=
EXTT12=
EXTT13=
EXTT14=
EXTT15=
EXTT16=
EXTT17=
EXTT18=
EXTT19=
PLAYORDER=
